<mxfile host="app.diagrams.net" modified="2023-09-10T19:18:20.174Z" agent="Mozilla/5.0 (Windows NT 10.0; Win64; x64) AppleWebKit/537.36 (KHTML, like Gecko) Chrome/116.0.0.0 Safari/537.36 Edg/116.0.1938.76" etag="FMCSnpXu2Bs_Hrr9YFP9" version="21.6.8" type="device">
  <diagram name="Página-1" id="14nwR3qZawLt3oEZsd3-">
    <mxGraphModel dx="3692" dy="2992" grid="1" gridSize="10" guides="1" tooltips="1" connect="1" arrows="1" fold="1" page="1" pageScale="1" pageWidth="827" pageHeight="1169" math="0" shadow="0">
      <root>
        <mxCell id="0" />
        <mxCell id="1" parent="0" />
        <mxCell id="kFk5V0TXHEzQAJ52vgGn-25" value="Gerenciameto de Problema - problema em computador de SSO" style="swimlane;childLayout=stackLayout;resizeParent=1;resizeParentMax=0;horizontal=1;startSize=20;horizontalStack=0;html=1;" parent="1" vertex="1">
          <mxGeometry x="-50" y="-270" width="2260" height="920" as="geometry" />
        </mxCell>
        <mxCell id="Mgg2G7JV7fv6aJmKJPj2-11" value="N3" style="swimlane;horizontal=0;whiteSpace=wrap;html=1;" vertex="1" parent="kFk5V0TXHEzQAJ52vgGn-25">
          <mxGeometry y="20" width="2260" height="200" as="geometry" />
        </mxCell>
        <mxCell id="kFk5V0TXHEzQAJ52vgGn-75" value="receber solicitação&amp;nbsp;" style="whiteSpace=wrap;html=1;rounded=1;" parent="Mgg2G7JV7fv6aJmKJPj2-11" vertex="1">
          <mxGeometry x="690" y="50" width="120" height="60" as="geometry" />
        </mxCell>
        <mxCell id="kFk5V0TXHEzQAJ52vgGn-78" value="registrar problema" style="whiteSpace=wrap;html=1;rounded=1;" parent="Mgg2G7JV7fv6aJmKJPj2-11" vertex="1">
          <mxGeometry x="890" y="50" width="120" height="60" as="geometry" />
        </mxCell>
        <mxCell id="kFk5V0TXHEzQAJ52vgGn-79" value="" style="edgeStyle=orthogonalEdgeStyle;rounded=0;orthogonalLoop=1;jettySize=auto;html=1;" parent="Mgg2G7JV7fv6aJmKJPj2-11" source="kFk5V0TXHEzQAJ52vgGn-75" target="kFk5V0TXHEzQAJ52vgGn-78" edge="1">
          <mxGeometry relative="1" as="geometry" />
        </mxCell>
        <mxCell id="kFk5V0TXHEzQAJ52vgGn-80" value="classificar o problema no software NOC" style="whiteSpace=wrap;html=1;rounded=1;" parent="Mgg2G7JV7fv6aJmKJPj2-11" vertex="1">
          <mxGeometry x="1040" y="50" width="120" height="60" as="geometry" />
        </mxCell>
        <mxCell id="kFk5V0TXHEzQAJ52vgGn-81" value="" style="edgeStyle=orthogonalEdgeStyle;rounded=0;orthogonalLoop=1;jettySize=auto;html=1;" parent="Mgg2G7JV7fv6aJmKJPj2-11" source="kFk5V0TXHEzQAJ52vgGn-78" target="kFk5V0TXHEzQAJ52vgGn-80" edge="1">
          <mxGeometry relative="1" as="geometry" />
        </mxCell>
        <mxCell id="kFk5V0TXHEzQAJ52vgGn-82" value="definir prioridade como alta" style="whiteSpace=wrap;html=1;rounded=1;" parent="Mgg2G7JV7fv6aJmKJPj2-11" vertex="1">
          <mxGeometry x="1191" y="50" width="120" height="60" as="geometry" />
        </mxCell>
        <mxCell id="kFk5V0TXHEzQAJ52vgGn-83" value="" style="edgeStyle=orthogonalEdgeStyle;rounded=0;orthogonalLoop=1;jettySize=auto;html=1;" parent="Mgg2G7JV7fv6aJmKJPj2-11" source="kFk5V0TXHEzQAJ52vgGn-80" target="kFk5V0TXHEzQAJ52vgGn-82" edge="1">
          <mxGeometry relative="1" as="geometry" />
        </mxCell>
        <mxCell id="kFk5V0TXHEzQAJ52vgGn-84" value="solução de contorno:&lt;br&gt;usar notebook temporário&amp;nbsp;" style="whiteSpace=wrap;html=1;rounded=1;" parent="Mgg2G7JV7fv6aJmKJPj2-11" vertex="1">
          <mxGeometry x="1340" y="50" width="120" height="60" as="geometry" />
        </mxCell>
        <mxCell id="kFk5V0TXHEzQAJ52vgGn-85" value="" style="edgeStyle=orthogonalEdgeStyle;rounded=0;orthogonalLoop=1;jettySize=auto;html=1;" parent="Mgg2G7JV7fv6aJmKJPj2-11" source="kFk5V0TXHEzQAJ52vgGn-82" target="kFk5V0TXHEzQAJ52vgGn-84" edge="1">
          <mxGeometry relative="1" as="geometry" />
        </mxCell>
        <mxCell id="kFk5V0TXHEzQAJ52vgGn-93" value="" style="edgeStyle=orthogonalEdgeStyle;rounded=0;orthogonalLoop=1;jettySize=auto;html=1;" parent="Mgg2G7JV7fv6aJmKJPj2-11" source="kFk5V0TXHEzQAJ52vgGn-90" edge="1">
          <mxGeometry relative="1" as="geometry">
            <mxPoint x="1640" y="80.00000000000011" as="targetPoint" />
          </mxGeometry>
        </mxCell>
        <mxCell id="kFk5V0TXHEzQAJ52vgGn-95" value="" style="edgeStyle=orthogonalEdgeStyle;rounded=0;orthogonalLoop=1;jettySize=auto;html=1;" parent="Mgg2G7JV7fv6aJmKJPj2-11" source="kFk5V0TXHEzQAJ52vgGn-90" edge="1">
          <mxGeometry relative="1" as="geometry">
            <mxPoint x="1640" y="80.00000000000045" as="targetPoint" />
          </mxGeometry>
        </mxCell>
        <mxCell id="kFk5V0TXHEzQAJ52vgGn-90" value="Investigar a causa raiz" style="whiteSpace=wrap;html=1;rounded=1;" parent="Mgg2G7JV7fv6aJmKJPj2-11" vertex="1">
          <mxGeometry x="1490" y="50" width="120" height="60" as="geometry" />
        </mxCell>
        <mxCell id="kFk5V0TXHEzQAJ52vgGn-91" value="" style="edgeStyle=orthogonalEdgeStyle;rounded=0;orthogonalLoop=1;jettySize=auto;html=1;" parent="Mgg2G7JV7fv6aJmKJPj2-11" source="kFk5V0TXHEzQAJ52vgGn-84" target="kFk5V0TXHEzQAJ52vgGn-90" edge="1">
          <mxGeometry relative="1" as="geometry" />
        </mxCell>
        <mxCell id="kFk5V0TXHEzQAJ52vgGn-96" style="edgeStyle=orthogonalEdgeStyle;rounded=0;orthogonalLoop=1;jettySize=auto;html=1;entryX=0.5;entryY=1;entryDx=0;entryDy=0;" parent="Mgg2G7JV7fv6aJmKJPj2-11" source="kFk5V0TXHEzQAJ52vgGn-94" target="kFk5V0TXHEzQAJ52vgGn-90" edge="1">
          <mxGeometry relative="1" as="geometry">
            <mxPoint x="1650" y="250" as="targetPoint" />
            <Array as="points">
              <mxPoint x="1670" y="180" />
              <mxPoint x="1540" y="180" />
              <mxPoint x="1540" y="110" />
            </Array>
          </mxGeometry>
        </mxCell>
        <mxCell id="kFk5V0TXHEzQAJ52vgGn-94" value="problema resolvido?" style="rhombus;whiteSpace=wrap;html=1;rounded=1;" parent="Mgg2G7JV7fv6aJmKJPj2-11" vertex="1">
          <mxGeometry x="1640" y="40" width="80" height="80" as="geometry" />
        </mxCell>
        <mxCell id="kFk5V0TXHEzQAJ52vgGn-97" value="não&lt;br&gt;" style="text;html=1;strokeColor=none;fillColor=none;align=center;verticalAlign=middle;whiteSpace=wrap;rounded=0;" parent="Mgg2G7JV7fv6aJmKJPj2-11" vertex="1">
          <mxGeometry x="1600" y="140" width="60" height="30" as="geometry" />
        </mxCell>
        <mxCell id="kFk5V0TXHEzQAJ52vgGn-100" value="atualizar a base de conhecimento&amp;nbsp;" style="whiteSpace=wrap;html=1;rounded=1;" parent="Mgg2G7JV7fv6aJmKJPj2-11" vertex="1">
          <mxGeometry x="1810" y="50" width="120" height="60" as="geometry" />
        </mxCell>
        <mxCell id="kFk5V0TXHEzQAJ52vgGn-101" value="" style="edgeStyle=orthogonalEdgeStyle;rounded=0;orthogonalLoop=1;jettySize=auto;html=1;" parent="Mgg2G7JV7fv6aJmKJPj2-11" target="kFk5V0TXHEzQAJ52vgGn-100" edge="1">
          <mxGeometry relative="1" as="geometry">
            <Array as="points">
              <mxPoint x="1740" y="80" />
            </Array>
            <mxPoint x="1720" y="80.00000000000045" as="sourcePoint" />
          </mxGeometry>
        </mxCell>
        <mxCell id="kFk5V0TXHEzQAJ52vgGn-99" value="sim" style="text;html=1;strokeColor=none;fillColor=none;align=center;verticalAlign=middle;whiteSpace=wrap;rounded=0;" parent="Mgg2G7JV7fv6aJmKJPj2-11" vertex="1">
          <mxGeometry x="1730" y="40" width="60" height="30" as="geometry" />
        </mxCell>
        <mxCell id="kFk5V0TXHEzQAJ52vgGn-26" value="N2" style="swimlane;startSize=20;horizontal=0;html=1;" parent="kFk5V0TXHEzQAJ52vgGn-25" vertex="1">
          <mxGeometry y="220" width="2260" height="150" as="geometry" />
        </mxCell>
        <mxCell id="kFk5V0TXHEzQAJ52vgGn-27" value="Central de Atendimento" style="swimlane;startSize=20;horizontal=0;html=1;" parent="kFk5V0TXHEzQAJ52vgGn-25" vertex="1">
          <mxGeometry y="370" width="2260" height="300" as="geometry" />
        </mxCell>
        <mxCell id="kFk5V0TXHEzQAJ52vgGn-71" value="" style="edgeStyle=orthogonalEdgeStyle;rounded=0;orthogonalLoop=1;jettySize=auto;html=1;" parent="kFk5V0TXHEzQAJ52vgGn-27" source="kFk5V0TXHEzQAJ52vgGn-36" target="kFk5V0TXHEzQAJ52vgGn-70" edge="1">
          <mxGeometry relative="1" as="geometry" />
        </mxCell>
        <mxCell id="kFk5V0TXHEzQAJ52vgGn-36" value="receber, registrar, classificar, priorizar a&amp;nbsp; solicitação" style="rounded=1;whiteSpace=wrap;html=1;" parent="kFk5V0TXHEzQAJ52vgGn-27" vertex="1">
          <mxGeometry x="280" y="190" width="120" height="60" as="geometry" />
        </mxCell>
        <mxCell id="kFk5V0TXHEzQAJ52vgGn-58" value="" style="edgeStyle=orthogonalEdgeStyle;rounded=0;orthogonalLoop=1;jettySize=auto;html=1;" parent="kFk5V0TXHEzQAJ52vgGn-27" source="kFk5V0TXHEzQAJ52vgGn-53" target="kFk5V0TXHEzQAJ52vgGn-57" edge="1">
          <mxGeometry relative="1" as="geometry" />
        </mxCell>
        <mxCell id="kFk5V0TXHEzQAJ52vgGn-53" value="consultar base de conhecimento&lt;span style=&quot;white-space: pre;&quot;&gt;&#x9;&lt;/span&gt;&lt;span style=&quot;white-space: pre;&quot;&gt;&#x9;&lt;/span&gt;" style="whiteSpace=wrap;html=1;rounded=1;" parent="kFk5V0TXHEzQAJ52vgGn-27" vertex="1">
          <mxGeometry x="570" y="190" width="120" height="60" as="geometry" />
        </mxCell>
        <mxCell id="kFk5V0TXHEzQAJ52vgGn-61" value="" style="edgeStyle=orthogonalEdgeStyle;rounded=0;orthogonalLoop=1;jettySize=auto;html=1;" parent="kFk5V0TXHEzQAJ52vgGn-27" source="kFk5V0TXHEzQAJ52vgGn-57" target="kFk5V0TXHEzQAJ52vgGn-60" edge="1">
          <mxGeometry relative="1" as="geometry" />
        </mxCell>
        <mxCell id="kFk5V0TXHEzQAJ52vgGn-68" value="" style="edgeStyle=orthogonalEdgeStyle;rounded=0;orthogonalLoop=1;jettySize=auto;html=1;" parent="kFk5V0TXHEzQAJ52vgGn-27" source="kFk5V0TXHEzQAJ52vgGn-57" target="kFk5V0TXHEzQAJ52vgGn-67" edge="1">
          <mxGeometry relative="1" as="geometry" />
        </mxCell>
        <mxCell id="kFk5V0TXHEzQAJ52vgGn-57" value="" style="rhombus;whiteSpace=wrap;html=1;rounded=1;" parent="kFk5V0TXHEzQAJ52vgGn-27" vertex="1">
          <mxGeometry x="730" y="180" width="80" height="80" as="geometry" />
        </mxCell>
        <mxCell id="kFk5V0TXHEzQAJ52vgGn-59" value="É possível atendimento em 1° nível?" style="text;html=1;strokeColor=none;fillColor=none;align=center;verticalAlign=middle;whiteSpace=wrap;rounded=0;" parent="kFk5V0TXHEzQAJ52vgGn-27" vertex="1">
          <mxGeometry x="705" y="260" width="130" height="30" as="geometry" />
        </mxCell>
        <mxCell id="kFk5V0TXHEzQAJ52vgGn-60" value="atender solicitação" style="whiteSpace=wrap;html=1;rounded=1;" parent="kFk5V0TXHEzQAJ52vgGn-27" vertex="1">
          <mxGeometry x="1130" y="190" width="120" height="60" as="geometry" />
        </mxCell>
        <mxCell id="kFk5V0TXHEzQAJ52vgGn-66" value="sim" style="text;html=1;strokeColor=none;fillColor=none;align=center;verticalAlign=middle;whiteSpace=wrap;rounded=0;" parent="kFk5V0TXHEzQAJ52vgGn-27" vertex="1">
          <mxGeometry x="890" y="230" width="60" height="30" as="geometry" />
        </mxCell>
        <mxCell id="kFk5V0TXHEzQAJ52vgGn-74" value="" style="edgeStyle=orthogonalEdgeStyle;rounded=0;orthogonalLoop=1;jettySize=auto;html=1;" parent="kFk5V0TXHEzQAJ52vgGn-27" source="kFk5V0TXHEzQAJ52vgGn-67" target="kFk5V0TXHEzQAJ52vgGn-73" edge="1">
          <mxGeometry relative="1" as="geometry" />
        </mxCell>
        <mxCell id="kFk5V0TXHEzQAJ52vgGn-67" value="escalonar atendimeneto para o segundo nível&amp;nbsp;" style="whiteSpace=wrap;html=1;rounded=1;" parent="kFk5V0TXHEzQAJ52vgGn-27" vertex="1">
          <mxGeometry x="710" y="95" width="120" height="60" as="geometry" />
        </mxCell>
        <mxCell id="kFk5V0TXHEzQAJ52vgGn-69" value="não" style="text;html=1;strokeColor=none;fillColor=none;align=center;verticalAlign=middle;whiteSpace=wrap;rounded=0;" parent="kFk5V0TXHEzQAJ52vgGn-27" vertex="1">
          <mxGeometry x="780" y="160" width="60" height="30" as="geometry" />
        </mxCell>
        <mxCell id="kFk5V0TXHEzQAJ52vgGn-72" value="" style="edgeStyle=orthogonalEdgeStyle;rounded=0;orthogonalLoop=1;jettySize=auto;html=1;" parent="kFk5V0TXHEzQAJ52vgGn-27" source="kFk5V0TXHEzQAJ52vgGn-70" target="kFk5V0TXHEzQAJ52vgGn-53" edge="1">
          <mxGeometry relative="1" as="geometry" />
        </mxCell>
        <mxCell id="kFk5V0TXHEzQAJ52vgGn-70" value="analisar o erro" style="whiteSpace=wrap;html=1;rounded=1;" parent="kFk5V0TXHEzQAJ52vgGn-27" vertex="1">
          <mxGeometry x="410" y="190" width="120" height="60" as="geometry" />
        </mxCell>
        <mxCell id="kFk5V0TXHEzQAJ52vgGn-73" value="informar&amp;nbsp; o usuário" style="whiteSpace=wrap;html=1;rounded=1;" parent="kFk5V0TXHEzQAJ52vgGn-27" vertex="1">
          <mxGeometry x="710" y="10" width="120" height="60" as="geometry" />
        </mxCell>
        <mxCell id="kFk5V0TXHEzQAJ52vgGn-28" value="cliente" style="swimlane;startSize=20;horizontal=0;html=1;" parent="kFk5V0TXHEzQAJ52vgGn-25" vertex="1">
          <mxGeometry y="670" width="2260" height="250" as="geometry" />
        </mxCell>
        <mxCell id="kFk5V0TXHEzQAJ52vgGn-29" value="solicitar serviço via central de atendimento" style="rounded=1;whiteSpace=wrap;html=1;" parent="kFk5V0TXHEzQAJ52vgGn-28" vertex="1">
          <mxGeometry x="280" y="130" width="120" height="60" as="geometry" />
        </mxCell>
        <mxCell id="kFk5V0TXHEzQAJ52vgGn-42" style="edgeStyle=orthogonalEdgeStyle;rounded=0;orthogonalLoop=1;jettySize=auto;html=1;exitX=1;exitY=0.5;exitDx=0;exitDy=0;entryX=0;entryY=0.5;entryDx=0;entryDy=0;" parent="kFk5V0TXHEzQAJ52vgGn-28" source="kFk5V0TXHEzQAJ52vgGn-34" target="kFk5V0TXHEzQAJ52vgGn-40" edge="1">
          <mxGeometry relative="1" as="geometry" />
        </mxCell>
        <mxCell id="kFk5V0TXHEzQAJ52vgGn-34" value="" style="ellipse;whiteSpace=wrap;html=1;aspect=fixed;fillColor=#d5e8d4;strokeColor=#82b366;" parent="kFk5V0TXHEzQAJ52vgGn-28" vertex="1">
          <mxGeometry x="40" y="120" width="80" height="80" as="geometry" />
        </mxCell>
        <mxCell id="kFk5V0TXHEzQAJ52vgGn-41" style="edgeStyle=orthogonalEdgeStyle;rounded=0;orthogonalLoop=1;jettySize=auto;html=1;exitX=1;exitY=0.5;exitDx=0;exitDy=0;entryX=0;entryY=0.5;entryDx=0;entryDy=0;" parent="kFk5V0TXHEzQAJ52vgGn-28" source="kFk5V0TXHEzQAJ52vgGn-40" target="kFk5V0TXHEzQAJ52vgGn-29" edge="1">
          <mxGeometry relative="1" as="geometry" />
        </mxCell>
        <mxCell id="kFk5V0TXHEzQAJ52vgGn-40" value="gráficos normais mas computador lento em SSO" style="rounded=1;whiteSpace=wrap;html=1;" parent="kFk5V0TXHEzQAJ52vgGn-28" vertex="1">
          <mxGeometry x="140" y="130" width="120" height="60" as="geometry" />
        </mxCell>
        <mxCell id="kFk5V0TXHEzQAJ52vgGn-65" value="" style="edgeStyle=orthogonalEdgeStyle;rounded=0;orthogonalLoop=1;jettySize=auto;html=1;" parent="kFk5V0TXHEzQAJ52vgGn-28" source="kFk5V0TXHEzQAJ52vgGn-62" target="kFk5V0TXHEzQAJ52vgGn-64" edge="1">
          <mxGeometry relative="1" as="geometry" />
        </mxCell>
        <mxCell id="kFk5V0TXHEzQAJ52vgGn-62" value="finalizar solicitação" style="whiteSpace=wrap;html=1;rounded=1;" parent="kFk5V0TXHEzQAJ52vgGn-28" vertex="1">
          <mxGeometry x="1130" y="95" width="120" height="60" as="geometry" />
        </mxCell>
        <mxCell id="kFk5V0TXHEzQAJ52vgGn-64" value="" style="ellipse;whiteSpace=wrap;html=1;rounded=1;fillColor=#f8cecc;strokeColor=#b85450;" parent="kFk5V0TXHEzQAJ52vgGn-28" vertex="1">
          <mxGeometry x="1720" y="85" width="80" height="80" as="geometry" />
        </mxCell>
        <mxCell id="kFk5V0TXHEzQAJ52vgGn-37" style="edgeStyle=orthogonalEdgeStyle;rounded=0;orthogonalLoop=1;jettySize=auto;html=1;entryX=0.5;entryY=1;entryDx=0;entryDy=0;" parent="kFk5V0TXHEzQAJ52vgGn-25" source="kFk5V0TXHEzQAJ52vgGn-29" target="kFk5V0TXHEzQAJ52vgGn-36" edge="1">
          <mxGeometry relative="1" as="geometry" />
        </mxCell>
        <mxCell id="kFk5V0TXHEzQAJ52vgGn-76" value="" style="edgeStyle=orthogonalEdgeStyle;rounded=0;orthogonalLoop=1;jettySize=auto;html=1;" parent="kFk5V0TXHEzQAJ52vgGn-25" source="kFk5V0TXHEzQAJ52vgGn-73" target="kFk5V0TXHEzQAJ52vgGn-75" edge="1">
          <mxGeometry relative="1" as="geometry" />
        </mxCell>
        <mxCell id="kFk5V0TXHEzQAJ52vgGn-86" style="edgeStyle=orthogonalEdgeStyle;rounded=0;orthogonalLoop=1;jettySize=auto;html=1;entryX=0.5;entryY=0;entryDx=0;entryDy=0;" parent="kFk5V0TXHEzQAJ52vgGn-25" source="kFk5V0TXHEzQAJ52vgGn-60" target="kFk5V0TXHEzQAJ52vgGn-62" edge="1">
          <mxGeometry relative="1" as="geometry" />
        </mxCell>
        <mxCell id="kFk5V0TXHEzQAJ52vgGn-103" style="edgeStyle=orthogonalEdgeStyle;rounded=0;orthogonalLoop=1;jettySize=auto;html=1;entryX=1;entryY=0.5;entryDx=0;entryDy=0;" parent="kFk5V0TXHEzQAJ52vgGn-25" source="kFk5V0TXHEzQAJ52vgGn-100" target="kFk5V0TXHEzQAJ52vgGn-64" edge="1">
          <mxGeometry relative="1" as="geometry">
            <Array as="points">
              <mxPoint x="1890" y="725" />
            </Array>
          </mxGeometry>
        </mxCell>
      </root>
    </mxGraphModel>
  </diagram>
</mxfile>
